<?xml version="1.0" encoding="UTF-8"?><svg id="_图层_2" xmlns="http://www.w3.org/2000/svg" viewBox="0 0 705.47 142.57"><g id="_图层_1-2"><path d="m264.9,115.8c-31.88,0-54.14-20.24-54.14-49.23s22.26-49.23,54.14-49.23c8.04,0,17.49.91,31.97,7.5v20.62c-10.48-5.84-20.84-8.8-30.79-8.8-19.97,0-33.92,12.3-33.92,29.9s13.95,29.91,33.92,29.91c9.68,0,20.32-3.02,30.79-8.73v20.55c-14.49,6.59-23.93,7.5-31.97,7.5Z"/><path d="m339.56,115.8c-18.84,0-32-14.31-32-34.8s13.73-34.95,32.64-34.95c10.45,0,17.72,3.19,23.56,10.36l.47.57v-7.53h18.43v64.86h-18.43v-9.21l-.48.69c-4.74,6.83-12.43,10.01-24.19,10.01Zm6.37-54.29c-11.04,0-19.05,8.2-19.05,19.49s8.01,19.34,19.05,19.34,19.2-8.14,19.2-19.34-8.07-19.49-19.2-19.49Z"/><path d="m396.64,142.57V49.45h18.58v8.1l.48-.67c3.57-5,12.01-10.83,24.07-10.83,18.53,0,31.97,14.7,31.97,34.95s-13.21,34.8-32.12,34.8c-11.28,0-19.33-3.25-23.92-9.67l-.48-.67v37.11h-18.58Zm36.73-81.07c-11.04,0-19.04,8.2-19.04,19.49s8.01,19.34,19.04,19.34,18.9-8.14,18.9-19.34-7.95-19.49-18.9-19.49Z"/><path d="m537.24,115.8c-31.88,0-54.14-20.24-54.14-49.23s22.26-49.23,54.14-49.23c8.04,0,17.49.91,31.97,7.5v20.62c-10.48-5.84-20.84-8.8-30.78-8.8-19.97,0-33.92,12.3-33.92,29.9s13.95,29.91,33.92,29.91c9.68,0,20.32-3.02,30.78-8.73v20.55c-14.49,6.59-23.93,7.5-31.97,7.5Z"/><path d="m614.67,115.8c-20.78,0-34.2-9.81-34.2-24.98v-43.28h18.43v37.92c0,9.32,5.9,14.88,15.77,14.88s15.48-5.56,15.48-14.88v-37.92h18.43v43.28c0,15.18-13.31,24.98-33.91,24.98Z"/><path d="m689.26,115.8c-20.41,0-27.66-12.66-27.66-23.5v-57.94h18.43v13.17h25.44v15.08h-25.44v25.97c0,3.49,1.33,11.61,13.69,11.61,3.43,0,7.69-.91,11.74-2.49v15.54c-6.45,2.36-14.02,2.55-16.21,2.55Z"/><path d="m169.51,27.62V1.19l-31.79,16.69v-.99c0-10.53-7.55-16.89-18.48-16.89H18.48C6.96,0,0,6.36,0,16.89v26.63l44.51,23.05L0,89.82v26.63c0,10.33,6.96,16.69,18.48,16.69h100.75c10.93,0,18.48-6.36,18.48-16.69v-1.39l31.79,16.89v-26.83l-73.92-38.55,73.92-38.95Zm-99.56,52.06l54.65,28.62H15.1l54.85-28.62Zm54.25-54.85l-54.25,28.42L15.1,24.84h109.1Z"/></g></svg>